<?xml version="1.0"?>
<svg version="1.1" xmlns="http://www.w3.org/2000/svg" width="400px" height="166px" style=""><path fill="#7d0000" d="M67.48,68.58l-8.96,0l0,65.1q0,10.5-7,17.5t-17.5,7t-17.5-7q-7.14-6.86-7.14-17.5l0-15.82l-8.68,0l0,15.82q0,14.14,10.08,23.8q9.94,9.52,23.24,9.52q14.56,0,24.08-9.52q9.38-9.38,9.38-23.8l0-65.1z M126.5376,68.44q-15.68,0-26.32,11.34q-10.5,11.2-10.5,27.3l0,59.92l8.82,0l0-43.96l56.28,0l0,43.96l8.82,0l0-59.92q0-16.1-10.5-27.3q-10.92-11.34-26.6-11.34z M154.8176,114.36l-56.28,0l0-7.28q0-12.04,8.12-20.86q8.26-8.96,19.88-8.96t20.16,8.96q8.12,8.82,8.12,20.86l0,7.28z M248.1752,167l14.14,0l-62.58-49.98l62.58-48.16l-14.14,0l-53.76,42.84l0-42.84l-8.82,0l0,98.14l8.82,0l0-42.84z M290.2928,140.12q0-6.72,4.76-12.18q4.76-5.74,11.48-5.74l1.82,0l26.18,0l0-8.68l-26.18,0l-1.82,0q-7.14-1.4-11.69-6.16t-4.55-11.34q0-8.26,4.83-13.09t13.23-4.83l47.6,0l0-8.82l-47.6,0q-10.78,0-18.76,7.98q-7.98,7.7-7.98,18.76q0,7,2.66,12.74t7.84,8.26q-5.18,3.78-7.84,9.94t-2.66,13.16q0,10.92,7.98,18.62q8.12,8.12,18.76,8.12l47.6,0l0-9.24l-47.6,0q-8.4,0-13.23-4.76t-4.83-12.74z M434.1904,77.54l-63.14,89.6l78.96,0l0-7l-63.14,0l63.14-91.28l-77.28,0l0,8.68l61.46,0z M528.948,77.54l-63.14,89.6l78.96,0l0-7l-63.14,0l63.14-91.28l-77.28,0l0,8.68l61.46,0z"/><path fill="#0019fa" d=""/></svg>
