<?xml version="1.0" encoding="UTF-8" standalone="no"?>
<svg
   xmlns:dc="http://purl.org/dc/elements/1.1/"
   xmlns:cc="http://creativecommons.org/ns#"
   xmlns:rdf="http://www.w3.org/1999/02/22-rdf-syntax-ns#"
   xmlns:svg="http://www.w3.org/2000/svg"
   xmlns="http://www.w3.org/2000/svg"
   viewBox="0 0 177.34666 121.4"
   height="121.4"
   width="177.34666"
   xml:space="preserve"
   id="svg2"
   version="1.1"><metadata
     id="metadata8"><rdf:RDF><cc:Work
         rdf:about=""><dc:format>image/svg+xml</dc:format><dc:type
           rdf:resource="http://purl.org/dc/dcmitype/StillImage" /></cc:Work></rdf:RDF></metadata><defs
     id="defs6" /><g
     transform="matrix(1.3333333,0,0,-1.3333333,0,121.4)"
     id="g10"><g
       transform="scale(0.1)"
       id="g12"><path
         id="path14"
         style="fill:#231f20;fill-opacity:1;fill-rule:nonzero;stroke:none"
         d="m 600.027,446.906 c -4.207,0 -8.382,1.75 -11.343,5.184 -5.414,6.265 -4.723,15.726 1.543,21.137 7.679,6.64 32.742,32.535 32.742,87.16 0,8.273 6.711,14.984 14.984,14.984 8.274,0 14.985,-6.711 14.985,-14.984 0,-67.352 -33.004,-101.094 -43.118,-109.84 -2.832,-2.442 -6.324,-3.641 -9.793,-3.641" /><path
         id="path16"
         style="fill:#231f20;fill-opacity:1;fill-rule:nonzero;stroke:none"
         d="m 730.078,446.906 c -3.476,0 -6.973,1.199 -9.797,3.641 -10.105,8.746 -43.117,42.488 -43.117,109.84 0,8.273 6.703,14.984 14.984,14.984 8.282,0 14.981,-6.711 14.981,-14.984 0,-54.625 25.059,-80.52 32.742,-87.16 6.262,-5.411 6.953,-14.872 1.555,-21.137 -2.969,-3.434 -7.149,-5.184 -11.348,-5.184" /><path
         id="path18"
         style="fill:#231f20;fill-opacity:1;fill-rule:nonzero;stroke:none"
         d="m 737.109,562.223 c -8.281,0 -14.992,6.715 -14.992,14.984 v 39.508 c 0,8.269 6.711,14.984 14.992,14.984 8.262,0 14.981,-6.715 14.981,-14.984 v -39.508 c 0,-8.269 -6.719,-14.984 -14.981,-14.984" /><path
         id="path20"
         style="fill:#231f20;fill-opacity:1;fill-rule:nonzero;stroke:none"
         d="m 937.566,692.961 c -2.539,0 -5.105,0.644 -7.468,2.004 l -34.219,19.746 c -7.168,4.141 -9.629,13.309 -5.488,20.477 4.14,7.171 13.269,9.628 20.468,5.488 l 34.219,-19.746 c 7.156,-4.149 9.617,-13.309 5.488,-20.477 -2.785,-4.808 -7.812,-7.492 -13,-7.492" /><path
         id="path22"
         style="fill:#231f20;fill-opacity:1;fill-rule:nonzero;stroke:none"
         d="m 900.801,645.016 c -3.848,0 -7.676,1.464 -10.606,4.39 l -27.929,27.934 c -5.86,5.855 -5.86,15.336 0,21.191 5.847,5.848 15.332,5.848 21.191,0 l 27.93,-27.941 c 5.859,-5.848 5.859,-15.332 0,-21.184 -2.93,-2.926 -6.758,-4.39 -10.586,-4.39" /><path
         id="path24"
         style="fill:#231f20;fill-opacity:1;fill-rule:nonzero;stroke:none"
         d="m 852.859,608.223 c -5.183,0 -10.214,2.687 -12.996,7.496 l -19.746,34.215 c -4.133,7.168 -1.679,16.328 5.488,20.472 7.188,4.141 16.329,1.672 20.469,-5.488 l 19.746,-34.215 c 4.141,-7.172 1.68,-16.332 -5.476,-20.473 -2.364,-1.363 -4.946,-2.007 -7.485,-2.007" /><path
         id="path26"
         style="fill:#231f20;fill-opacity:1;fill-rule:nonzero;stroke:none"
         d="m 960.723,748.781 c -1.289,0 -2.598,0.168 -3.887,0.52 l -38.164,10.23 c -7.996,2.145 -12.734,10.356 -10.598,18.352 2.141,7.988 10.371,12.758 18.352,10.594 l 38.164,-10.231 c 8,-2.141 12.734,-10.359 10.598,-18.348 -1.79,-6.699 -7.852,-11.117 -14.465,-11.117" /><path
         id="path28"
         style="fill:#231f20;fill-opacity:1;fill-rule:nonzero;stroke:none"
         d="m 797.012,577.598 c -6.621,0 -12.676,4.418 -14.461,11.113 l -10.227,38.164 c -2.148,7.988 2.598,16.207 10.586,18.352 7.988,2.168 16.211,-2.606 18.36,-10.598 l 10.222,-38.164 c 2.141,-7.988 -2.597,-16.207 -10.594,-18.348 -1.289,-0.351 -2.605,-0.519 -3.886,-0.519" /><path
         id="path30"
         style="fill:#231f20;fill-opacity:1;fill-rule:nonzero;stroke:none"
         d="m 593.004,562.223 c -8.274,0 -14.981,6.715 -14.981,14.984 v 39.508 c 0,8.269 6.707,14.984 14.981,14.984 8.273,0 14.984,-6.715 14.984,-14.984 v -39.508 c 0,-8.269 -6.711,-14.984 -14.984,-14.984" /><path
         id="path32"
         style="fill:#231f20;fill-opacity:1;fill-rule:nonzero;stroke:none"
         d="m 392.539,692.961 c -5.18,0 -10.215,2.684 -12.992,7.492 -4.137,7.168 -1.676,16.328 5.488,20.477 l 34.207,19.746 c 7.188,4.14 16.332,1.683 20.477,-5.488 4.133,-7.168 1.672,-16.336 -5.489,-20.477 l -34.214,-19.746 c -2.364,-1.36 -4.938,-2.004 -7.477,-2.004" /><path
         id="path34"
         style="fill:#231f20;fill-opacity:1;fill-rule:nonzero;stroke:none"
         d="m 429.313,645.016 c -3.833,0 -7.668,1.464 -10.59,4.39 -5.856,5.852 -5.856,15.336 0,21.184 l 27.933,27.941 c 5.856,5.848 15.336,5.848 21.188,0 5.851,-5.855 5.851,-15.336 0,-21.191 l -27.938,-27.934 c -2.926,-2.926 -6.758,-4.39 -10.593,-4.39" /><path
         id="path36"
         style="fill:#231f20;fill-opacity:1;fill-rule:nonzero;stroke:none"
         d="m 477.246,608.223 c -2.539,0 -5.117,0.644 -7.48,2.007 -7.164,4.141 -9.621,13.301 -5.485,20.473 l 19.746,34.215 c 4.141,7.16 13.274,9.629 20.477,5.488 7.16,-4.144 9.617,-13.304 5.484,-20.472 l -19.75,-34.215 c -2.777,-4.809 -7.812,-7.496 -12.992,-7.496" /><path
         id="path38"
         style="fill:#231f20;fill-opacity:1;fill-rule:nonzero;stroke:none"
         d="m 369.391,748.781 c -6.621,0 -12.676,4.418 -14.469,11.117 -2.145,7.989 2.598,16.207 10.598,18.348 l 38.164,10.231 c 7.976,2.171 16.214,-2.606 18.347,-10.594 2.145,-7.996 -2.597,-16.207 -10.59,-18.352 l -38.171,-10.23 c -1.293,-0.352 -2.602,-0.52 -3.879,-0.52" /><path
         id="path40"
         style="fill:#231f20;fill-opacity:1;fill-rule:nonzero;stroke:none"
         d="m 533.098,577.598 c -1.282,0 -2.594,0.168 -3.887,0.519 -8,2.141 -12.742,10.36 -10.598,18.348 l 10.231,38.164 c 2.136,7.992 10.359,12.75 18.347,10.598 8,-2.145 12.743,-10.364 10.598,-18.352 l -10.23,-38.164 c -1.793,-6.695 -7.852,-11.113 -14.461,-11.113" /><path
         id="path42"
         style="fill:#231f20;fill-opacity:1;fill-rule:nonzero;stroke:none"
         d="m 665.043,433.18 c -8.27,0 -14.98,6.707 -14.98,14.984 v 37.738 c 0,8.278 6.71,14.989 14.98,14.989 8.277,0 14.984,-6.711 14.984,-14.989 v -37.738 c 0,-8.277 -6.707,-14.984 -14.984,-14.984" /><path
         id="path44"
         style="fill:#231f20;fill-opacity:1;fill-rule:nonzero;stroke:none"
         d="M 991.094,838.676 H 839.395 v 0 h -0.008 c -8.274,0 -14.992,-6.707 -14.992,-14.985 0,-48.14 -39.161,-87.3 -87.286,-87.3 h -7.5 c -11.64,0 -21.113,9.468 -21.113,21.109 v 7.188 h 14.199 c 8.262,0 14.981,6.71 14.981,14.984 0,27.922 -26.524,54.324 -54.571,54.324 h -23.968 c -1.039,0 -2.051,-0.105 -3.024,-0.308 -18.246,-1.485 -32.715,-15.954 -34.199,-34.211 -0.203,-0.969 -0.309,-1.981 -0.309,-3.024 v -38.871 c 0,-0.023 -0.003,-0.051 -0.003,-0.07 0,-11.641 -9.473,-21.11 -21.114,-21.11 -0.004,0 -7.5,-0.011 -7.5,-0.011 -48.133,0 -87.297,39.16 -87.297,87.3 0,8.278 -6.707,14.985 -14.984,14.985 H 339.02 c -8.278,0 -14.989,-6.707 -14.989,-14.985 0,-8.277 6.711,-14.984 14.989,-14.984 h 137.773 c 7.395,-57.594 56.625,-102.281 116.195,-102.281 0.008,0 7.524,0.004 7.532,0.004 28.097,0.015 50.96,22.851 51.043,50.933 0,0.055 0.015,0.094 0.015,0.149 v 38.941 c 0,4.176 3.387,7.57 7.559,7.57 h 23.968 c 6.309,0 13.028,-3.96 17.872,-9.363 h -7.461 c -8.282,0 -14.981,-6.711 -14.981,-14.988 V 757.5 c 0,-28.16 22.91,-51.074 51.074,-51.074 h 7.5 c 59.571,0 108.789,44.687 116.192,102.281 h 137.793 c 8.269,0 14.976,6.707 14.976,14.984 0,8.278 -6.707,14.985 -14.976,14.985" /><path
         id="path46"
         style="fill:#231f20;fill-opacity:1;fill-rule:nonzero;stroke:none"
         d="m 734.426,897.125 c -5.852,5.848 -15.344,5.848 -21.184,0 l -20.429,-20.43 h -6.708 v 18.793 c 0,8.278 -6.71,14.985 -14.988,14.985 -8.273,0 -14.984,-6.707 -14.984,-14.985 v -18.793 h -6.707 l -20.434,20.418 c -5.847,5.856 -15.332,5.856 -21.183,0 -5.856,-5.851 -5.856,-15.34 0,-21.191 l 24.82,-24.809 c 2.805,-2.808 6.617,-4.39 10.594,-4.39 h 55.8 c 3.965,0 7.774,1.582 10.586,4.39 l 24.817,24.821 c 5.847,5.855 5.847,15.339 0,21.191" /><g
         transform="scale(10)"
         id="g48">
</g></g></g></svg>