<?xml version="1.0" standalone="no"?>
<!DOCTYPE svg PUBLIC "-//W3C//DTD SVG 20010904//EN"
 "http://www.w3.org/TR/2001/REC-SVG-20010904/DTD/svg10.dtd">
<svg version="1.0" xmlns="http://www.w3.org/2000/svg"
 width="1536.000000pt" height="1536.000000pt" viewBox="0 0 1536.000000 1536.000000"
 preserveAspectRatio="xMidYMid meet">

	<g transform="translate(0.000000,1536.000000) scale(0.100000,-0.100000)"
	fill="#000000" stroke="none">
		<path d="M7557 12770 c-9 -11 -25 -20 -34 -20 -10 0 -40 -17 -68 -38 -141
-107 -199 -282 -143 -436 24 -67 44 -100 101 -164 35 -39 38 -47 32 -80 -4
-20 -13 -45 -21 -56 -8 -11 -14 -27 -14 -35 0 -8 -8 -33 -18 -55 -28 -61 -102
-251 -102 -261 0 -5 -8 -27 -18 -49 -24 -51 -98 -242 -107 -276 -4 -14 -14
-34 -21 -45 -8 -11 -14 -26 -14 -33 0 -8 -6 -28 -14 -45 -19 -41 -62 -155 -71
-187 -4 -14 -14 -34 -21 -45 -8 -11 -14 -26 -14 -35 0 -8 -9 -32 -20 -53 -11
-20 -20 -42 -20 -48 0 -5 -11 -35 -25 -65 -18 -38 -30 -54 -44 -54 -12 0 -76
54 -155 131 -146 141 -154 155 -118 207 33 48 47 143 32 225 -15 89 -46 143
-117 206 -98 87 -224 112 -352 69 -54 -18 -78 -34 -131 -88 -55 -54 -69 -76
-88 -133 -28 -85 -28 -140 -1 -229 19 -62 30 -80 91 -142 52 -52 68 -75 65
-91 -7 -26 -35 -104 -47 -130 -5 -11 -16 -39 -25 -62 -8 -24 -22 -62 -30 -85
-9 -24 -22 -56 -29 -73 -7 -16 -19 -46 -26 -65 -6 -19 -20 -55 -30 -80 -10
-25 -24 -61 -30 -80 -7 -19 -19 -48 -26 -65 -7 -16 -21 -50 -30 -75 -55 -155
-46 -154 -229 -20 -167 122 -157 112 -152 150 3 19 10 55 17 80 12 48 7 98
-18 175 -34 103 -104 182 -202 229 -59 28 -74 31 -165 31 -92 0 -105 -3 -165
-32 -36 -18 -74 -40 -85 -50 -38 -33 -105 -125 -105 -142 0 -10 -9 -26 -20
-36 -18 -16 -20 -31 -20 -127 0 -69 4 -108 11 -108 5 0 17 -16 25 -36 50 -120
170 -215 289 -229 53 -7 58 -10 72 -43 8 -20 21 -70 29 -111 8 -42 22 -107 30
-144 9 -37 19 -91 23 -120 9 -56 30 -166 60 -312 27 -127 41 -199 56 -280 21
-119 44 -237 60 -305 8 -36 19 -90 24 -120 11 -67 37 -197 53 -265 6 -27 17
-84 24 -125 22 -134 45 -244 59 -277 31 -70 -151 -65 2162 -65 l2084 0 34 26
c27 21 36 36 45 83 6 32 19 99 30 148 25 124 39 196 55 294 8 47 19 98 24 115
6 17 13 54 16 81 4 28 13 73 20 100 7 28 16 70 20 95 3 25 13 77 20 115 31
148 47 232 56 285 5 30 16 84 24 120 19 84 45 215 60 310 7 41 17 95 23 120 6
25 18 79 26 121 8 41 21 91 29 111 14 33 19 36 69 42 56 7 126 37 174 75 41
32 112 128 119 160 3 16 13 32 21 35 11 4 14 28 14 111 0 83 -3 107 -14 111
-8 3 -18 19 -21 35 -7 32 -79 129 -116 157 -84 63 -173 88 -287 78 -39 -3 -87
-12 -105 -20 -104 -45 -187 -138 -223 -252 -29 -90 -30 -124 -5 -204 l19 -61
-23 -25 c-13 -13 -49 -42 -81 -64 -33 -22 -94 -64 -138 -95 -43 -30 -85 -55
-93 -55 -13 0 -63 92 -63 117 0 7 -9 32 -19 55 -27 61 -56 134 -81 203 -13 33
-31 80 -40 105 -10 25 -28 72 -40 105 -12 33 -28 74 -36 90 -13 28 -32 81 -56
151 -10 30 -8 33 64 105 63 63 78 85 96 139 45 133 15 273 -82 374 -87 91
-246 130 -361 88 -68 -24 -91 -38 -141 -84 -84 -77 -125 -201 -104 -317 7 -36
21 -81 32 -100 11 -20 17 -44 14 -57 -6 -23 -267 -277 -290 -282 -13 -3 -66
92 -66 117 0 6 -9 30 -20 53 -10 24 -31 75 -45 113 -15 39 -33 84 -41 102 -8
17 -14 36 -14 42 0 6 -9 30 -19 53 -11 24 -30 70 -42 103 -12 33 -31 78 -41
101 -10 22 -18 47 -18 55 0 8 -6 23 -14 34 -7 11 -17 31 -21 45 -11 38 -85
231 -101 263 -8 16 -14 33 -14 39 0 6 -8 29 -19 52 -25 55 -59 145 -66 178 -6
21 0 35 32 70 59 67 83 105 104 165 35 104 18 232 -45 332 -32 50 -111 119
-162 141 -23 10 -45 23 -48 29 -5 7 -48 11 -114 11 -95 0 -110 -2 -125 -20z
m188 -171 c53 -13 121 -77 135 -128 25 -90 7 -168 -52 -228 -51 -52 -113 -69
-198 -53 -158 30 -217 242 -100 356 59 58 128 75 215 53z m-9 -607 c11 -7 54
-107 69 -162 4 -14 11 -29 15 -35 4 -5 13 -27 20 -48 7 -22 18 -51 26 -65 8
-15 14 -33 14 -39 0 -7 9 -32 19 -55 11 -24 30 -70 42 -103 12 -33 30 -78 40
-101 11 -23 19 -48 19 -55 0 -8 6 -23 14 -34 7 -11 17 -31 20 -45 11 -37 47
-132 61 -160 7 -14 18 -42 25 -63 7 -22 18 -51 26 -65 8 -15 14 -31 14 -36 0
-11 73 -199 102 -262 10 -22 18 -45 18 -51 0 -6 6 -24 14 -40 8 -15 27 -62 42
-103 15 -41 35 -93 45 -116 11 -22 19 -45 19 -51 0 -6 6 -24 14 -40 8 -15 45
-107 83 -203 85 -219 102 -250 184 -330 126 -125 272 -174 469 -157 119 10
191 44 379 178 168 120 293 208 356 253 28 19 61 44 75 55 34 28 66 26 96 -5
19 -18 24 -31 20 -47 -4 -12 -11 -48 -16 -80 -5 -33 -16 -91 -24 -130 -9 -40
-20 -94 -25 -122 -16 -86 -41 -210 -90 -450 -12 -55 -21 -109 -21 -119 0 -10
-9 -58 -20 -105 -11 -47 -29 -135 -40 -196 -12 -60 -30 -147 -41 -193 -10 -45
-19 -98 -19 -117 0 -18 -4 -45 -10 -60 -5 -14 -19 -76 -31 -138 -12 -62 -27
-143 -34 -181 -7 -38 -19 -72 -26 -77 -8 -5 -912 -8 -2009 -6 l-1995 2 -6 25
c-7 25 -23 100 -40 195 -5 28 -18 91 -29 140 -19 93 -29 140 -61 310 -25 134
-36 193 -59 300 -32 157 -42 208 -55 285 -21 120 -46 241 -60 295 -8 28 -17
75 -20 105 -4 30 -13 78 -20 105 -8 28 -18 84 -24 126 -6 41 -13 83 -17 92 -8
22 38 67 68 67 13 0 34 -9 48 -21 14 -11 50 -36 80 -57 30 -20 60 -41 65 -47
6 -6 42 -33 80 -59 39 -26 97 -67 130 -92 118 -87 251 -172 315 -200 63 -28
70 -29 215 -28 146 0 152 1 215 31 131 62 228 153 288 268 19 38 43 98 207
520 36 94 70 178 75 187 6 10 10 23 10 30 0 6 8 30 18 52 24 51 98 242 107
276 4 14 14 34 21 45 8 11 14 26 14 34 0 8 8 33 18 55 22 49 58 141 68 176 3
14 13 34 20 45 8 11 14 26 14 34 0 7 8 32 19 55 10 23 28 68 41 101 12 33 31
83 42 110 31 75 53 133 77 200 12 33 31 79 42 103 10 23 19 49 19 57 0 27 31
45 78 45 26 0 52 -4 58 -8z m-1319 -652 c54 -45 73 -83 73 -152 0 -72 -28
-123 -89 -159 -49 -30 -135 -30 -182 -1 -101 62 -122 205 -43 286 48 49 67 56
145 53 52 -2 71 -7 96 -27z m2738 2 c15 -12 39 -37 52 -55 22 -28 24 -41 21
-102 -3 -55 -9 -77 -28 -103 -39 -53 -82 -74 -148 -74 -69 0 -117 25 -156 80
-36 53 -38 153 -3 200 50 68 81 82 168 79 50 -2 72 -8 94 -25z m-2618 -558
c170 -163 273 -268 288 -290 14 -22 14 -27 0 -54 -8 -16 -15 -36 -15 -44 0 -9
-9 -35 -19 -58 -27 -61 -56 -134 -81 -203 -60 -163 -97 -229 -160 -288 -112
-104 -276 -137 -410 -83 -68 28 -169 93 -177 114 -8 18 15 110 33 137 8 11 14
26 14 34 0 8 8 33 18 55 27 59 62 150 62 160 0 5 8 27 19 50 10 23 37 88 58
146 88 232 137 351 148 360 15 12 80 28 122 29 25 1 43 -11 100 -65z m2487 43
c13 -9 28 -28 34 -44 6 -15 29 -77 53 -138 23 -60 51 -135 62 -165 11 -30 29
-73 39 -96 10 -22 18 -47 18 -55 0 -8 6 -23 14 -34 7 -11 17 -31 20 -45 10
-35 46 -127 68 -176 10 -22 18 -47 18 -55 0 -8 7 -24 15 -37 9 -12 18 -43 22
-70 l5 -48 -56 -38 c-95 -63 -164 -86 -257 -86 -49 0 -93 6 -112 14 -18 8 -48
21 -67 29 -41 17 -133 97 -154 135 -9 15 -22 43 -31 62 -9 19 -20 44 -25 55
-5 11 -16 38 -24 60 -8 22 -24 65 -36 95 -12 30 -29 73 -36 95 -8 22 -21 54
-28 70 -17 37 -36 93 -43 121 -6 24 1 31 217 238 l144 138 59 -5 c32 -3 68
-12 81 -20z m-3809 -249 c22 -14 53 -44 69 -67 26 -36 29 -51 30 -114 0 -41
-6 -83 -13 -97 -55 -103 -179 -146 -284 -100 -163 72 -166 304 -6 388 60 31
147 27 204 -10z m5132 10 c162 -81 162 -309 -1 -387 -124 -60 -282 23 -301
158 -24 174 149 305 302 229z"/>
		<path d="M7642 10960 c-22 -9 -82 -118 -82 -148 0 -8 -6 -26 -14 -40 -16 -32
-129 -320 -146 -374 -6 -21 -16 -40 -21 -43 -5 -4 -9 -13 -9 -22 0 -9 -8 -35
-18 -57 -22 -49 -58 -141 -68 -176 -3 -14 -13 -34 -20 -45 -8 -11 -14 -26 -14
-34 0 -8 -8 -33 -18 -55 -10 -23 -29 -68 -41 -101 -12 -33 -31 -79 -42 -103
-29 -65 -25 -122 20 -236 22 -56 68 -173 101 -261 34 -88 68 -173 75 -190 30
-71 95 -242 95 -250 0 -5 8 -27 18 -49 26 -57 102 -251 102 -260 0 -20 54
-118 73 -131 27 -19 67 -19 94 0 19 13 73 111 73 131 0 9 76 203 102 260 10
22 18 44 18 49 0 5 28 79 61 164 53 134 91 230 229 586 23 59 26 136 6 173 -8
15 -26 61 -41 102 -16 41 -36 93 -46 116 -11 22 -19 46 -19 53 0 7 -6 25 -14
39 -8 15 -26 61 -41 102 -15 41 -33 87 -41 102 -8 14 -14 32 -14 38 0 7 -8 31
-19 54 -10 23 -37 91 -60 151 -23 61 -51 129 -62 153 -10 23 -19 48 -19 55 0
7 -9 29 -20 50 -11 20 -20 44 -20 52 0 9 -14 43 -30 76 -37 73 -71 91 -128 69z
m105 -485 c48 -119 66 -167 89 -230 8 -22 21 -54 29 -72 8 -17 15 -36 15 -42
0 -6 9 -30 19 -53 11 -24 29 -70 41 -103 12 -33 28 -73 36 -90 7 -16 21 -50
30 -75 8 -25 22 -63 31 -85 17 -46 11 -106 -17 -169 -10 -23 -28 -66 -40 -96
-12 -30 -31 -74 -41 -98 -10 -23 -19 -47 -19 -53 0 -6 -6 -25 -14 -42 -8 -18
-26 -63 -41 -102 -14 -38 -35 -90 -45 -115 -10 -25 -31 -76 -45 -115 -15 -38
-33 -84 -41 -102 -8 -17 -14 -37 -14 -45 0 -42 -55 -51 -71 -10 -30 74 -51
126 -68 170 -11 26 -29 74 -41 107 -13 33 -31 78 -41 101 -11 23 -19 46 -19
52 0 6 -9 31 -19 54 -11 24 -39 93 -62 153 -23 61 -50 128 -60 150 -28 61 -33
114 -16 160 9 22 22 60 31 85 9 25 23 57 31 72 8 14 15 31 15 38 0 7 7 26 15
43 8 18 21 50 29 72 7 22 24 65 36 95 12 30 28 73 36 95 8 22 21 52 29 67 8
14 15 33 15 42 0 8 9 35 19 58 17 38 29 67 70 171 8 21 17 28 33 25 17 -2 30
-25 65 -113z"/>
		<path d="M5582 7525 c-35 -11 -61 -41 -62 -69 0 -11 8 -37 18 -57 l17 -38
2125 0 2125 -1 18 36 c22 45 22 76 -1 104 -17 20 -32 24 -126 31 -170 12
-4078 7 -4114 -6z"/>
		<path d="M3490 6505 c0 -584 2 -665 15 -665 13 0 15 32 15 225 l0 225 114 0
114 0 159 -225 c103 -146 164 -225 176 -225 9 0 17 3 17 6 0 3 -66 97 -147
210 -82 113 -154 214 -161 224 -11 15 -9 20 21 38 44 26 72 62 150 202 35 63
79 141 97 174 28 48 30 57 15 55 -11 -3 -54 -68 -117 -179 -117 -208 -151
-245 -229 -255 -30 -3 -88 -5 -129 -3 l-75 3 -3 428 c-2 370 -4 427 -17 427
-13 0 -15 -83 -15 -665z"/>
		<path d="M8429 6868 c0 -295 -1 -302 -17 -259 -23 59 -92 134 -150 163 -39 19
-63 23 -137 23 -79 0 -97 -4 -148 -29 -67 -32 -106 -84 -135 -176 -25 -81 -25
-480 0 -561 26 -83 69 -136 136 -167 77 -36 212 -38 283 -6 60 28 116 85 145
148 l24 51 0 -107 c0 -89 3 -108 15 -108 13 0 15 81 15 665 0 584 -2 665 -15
665 -13 0 -15 -41 -16 -302z m-204 -109 c57 -14 128 -77 160 -138 38 -76 47
-151 43 -347 -5 -204 -16 -246 -82 -321 -62 -71 -104 -88 -216 -88 -78 1 -102
5 -137 23 -51 27 -97 81 -119 141 -22 60 -32 398 -14 498 14 81 52 156 97 190
63 48 174 66 268 42z"/>
		<path d="M14780 6505 c0 -584 2 -665 15 -665 13 0 15 81 15 665 0 584 -2 665
-15 665 -13 0 -15 -81 -15 -665z"/>
		<path d="M9877 7063 c-4 -3 -7 -17 -7 -30 0 -15 6 -23 18 -23 28 0 43 20 31
42 -10 18 -30 24 -42 11z"/>
		<path d="M340 6440 c0 -525 2 -600 15 -600 13 0 15 72 17 562 l3 563 28 -100
c197 -702 292 -1025 302 -1025 7 0 84 234 186 562 l174 562 3 -562 c2 -490 4
-562 17 -562 13 0 15 75 15 601 l0 600 -21 -3 c-19 -3 -40 -61 -185 -533 -90
-291 -168 -550 -174 -575 l-12 -45 -22 85 c-12 47 -85 307 -162 577 -131 463
-140 493 -161 493 l-23 0 0 -600z"/>
		<path d="M2398 6538 l-3 -503 -30 -60 c-21 -42 -43 -69 -73 -90 -40 -27 -51
-30 -127 -30 -77 0 -86 2 -127 31 -30 22 -54 52 -77 98 -31 60 -35 75 -35 151
-1 76 -3 85 -20 85 -17 0 -18 -7 -14 -89 8 -138 60 -235 153 -284 57 -30 183
-30 242 1 53 28 95 80 119 145 17 48 19 95 22 550 3 438 1 497 -12 497 -13 0
-15 -63 -18 -502z"/>
		<path d="M7121 6523 c-79 -285 -154 -555 -167 -601 -21 -75 -21 -83 -6 -80 12
2 28 44 61 161 l45 157 232 0 c213 0 233 -1 238 -17 2 -10 14 -52 26 -93 56
-195 61 -210 76 -210 10 0 13 7 9 23 -4 12 -77 281 -163 597 -152 554 -159
575 -182 578 -25 3 -27 -4 -169 -515z m278 82 c56 -209 104 -388 107 -397 5
-17 -10 -18 -221 -18 -177 0 -226 3 -223 13 2 6 53 188 114 404 60 215 112
389 115 385 3 -4 52 -178 108 -387z"/>
		<path d="M11370 6441 c0 -528 2 -601 15 -601 13 0 15 28 15 194 l0 194 183 4
c159 4 189 7 239 27 143 56 221 216 205 420 -11 142 -53 229 -139 291 -71 52
-123 62 -330 67 l-188 5 0 -601z m430 541 c143 -56 220 -225 192 -423 -14 -94
-36 -151 -82 -203 -70 -79 -166 -106 -377 -106 l-133 0 0 381 0 381 173 -4
c147 -4 180 -7 227 -26z"/>
		<path d="M1536 6794 c-83 -30 -143 -97 -177 -197 l-18 -52 -1 103 c0 84 -3
102 -15 102 -13 0 -15 -57 -15 -455 0 -389 2 -455 14 -455 13 0 15 52 18 338
4 322 5 340 27 399 63 172 255 267 315 155 l15 -27 1 42 c0 37 -3 42 -31 52
-42 14 -85 13 -133 -5z"/>
		<path d="M2848 6787 c-111 -32 -174 -115 -199 -260 -16 -98 -7 -437 14 -503
26 -79 70 -132 135 -162 77 -36 212 -38 283 -6 60 28 116 85 145 148 l24 51 0
-107 c0 -89 3 -108 15 -108 13 0 15 57 15 455 0 257 -4 455 -9 455 -13 0 -21
-38 -22 -115 l-1 -70 -15 42 c-19 56 -92 136 -148 163 -56 27 -171 35 -237 17z
m197 -28 c57 -14 128 -77 160 -138 38 -76 47 -151 43 -347 -5 -204 -16 -246
-82 -321 -62 -71 -104 -88 -216 -88 -78 1 -102 5 -137 23 -51 27 -97 81 -119
141 -22 60 -32 398 -14 498 14 81 52 156 97 190 63 48 174 66 268 42z"/>
		<path d="M8856 6786 c-52 -20 -103 -70 -132 -131 l-24 -50 0 73 c0 57 -3 72
-15 72 -13 0 -15 -57 -15 -455 0 -398 2 -455 15 -455 13 0 15 43 15 330 0 340
5 401 42 475 46 92 110 130 205 122 81 -6 121 -30 155 -93 41 -75 48 -150 48
-506 0 -285 2 -328 15 -328 13 0 15 45 15 348 0 282 3 359 15 407 19 71 46
113 93 146 30 21 47 24 117 24 70 0 86 -3 118 -25 51 -35 85 -103 97 -192 5
-40 10 -216 10 -390 0 -276 2 -318 15 -318 13 0 15 40 15 298 -1 434 -14 528
-88 605 -72 76 -263 70 -333 -9 -21 -24 -54 -91 -64 -129 -7 -29 -8 -28 -21
25 -18 66 -57 118 -107 143 -50 25 -142 31 -191 13z"/>
		<path d="M10340 6781 c-66 -23 -140 -98 -163 -163 l-15 -43 -1 88 c-1 70 -4
87 -16 87 -13 0 -15 -57 -15 -455 0 -398 2 -455 15 -455 13 0 15 42 15 320 0
198 4 339 11 372 33 152 128 238 266 238 117 0 210 -56 260 -158 l28 -57 3
-357 c3 -304 5 -358 18 -358 12 0 14 50 14 339 0 312 -2 344 -20 405 -41 133
-129 202 -270 211 -59 5 -87 1 -130 -14z"/>
		<path d="M12448 6787 c-111 -32 -174 -115 -199 -260 -16 -98 -7 -437 14 -503
26 -79 70 -132 135 -162 77 -36 212 -38 283 -6 60 28 116 85 145 148 l24 51 0
-107 c0 -89 3 -108 15 -108 13 0 15 57 15 455 0 257 -4 455 -9 455 -13 0 -21
-38 -22 -115 l-1 -70 -15 42 c-19 56 -92 136 -148 163 -56 27 -171 35 -237 17z
m197 -28 c57 -14 128 -77 160 -138 38 -76 47 -151 43 -347 -5 -204 -16 -246
-82 -321 -62 -71 -104 -88 -216 -88 -78 1 -102 5 -137 23 -51 27 -97 81 -119
141 -22 60 -32 398 -14 498 14 81 52 156 97 190 63 48 174 66 268 42z"/>
		<path d="M13300 6781 c-66 -23 -140 -98 -163 -163 l-15 -43 -1 88 c-1 70 -4
87 -16 87 -13 0 -15 -57 -15 -455 0 -398 2 -455 15 -455 13 0 15 42 15 320 0
198 4 339 11 372 33 152 128 238 266 238 117 0 210 -56 260 -158 l28 -57 3
-357 c3 -304 5 -358 18 -358 12 0 14 50 14 339 0 312 -2 344 -20 405 -41 133
-129 202 -270 211 -59 5 -87 1 -130 -14z"/>
		<path d="M4488 6777 c-73 -21 -140 -77 -178 -149 -41 -77 -52 -160 -48 -353 4
-157 8 -187 27 -238 33 -85 78 -137 146 -172 52 -26 69 -30 144 -30 128 0 203
38 259 134 31 53 56 151 41 166 -13 13 -29 -11 -29 -45 0 -37 -42 -121 -80
-158 -57 -57 -85 -67 -190 -67 -86 0 -100 3 -142 28 -91 53 -137 152 -145 314
l-6 103 299 2 299 3 -1 115 c-2 180 -45 275 -149 325 -65 32 -176 42 -247 22z
m222 -41 c99 -51 139 -132 147 -298 l6 -108 -288 0 -288 0 6 88 c12 179 73
283 193 328 52 19 177 14 224 -10z"/>
		<path d="M14168 6777 c-73 -21 -140 -77 -178 -149 -41 -77 -52 -160 -48 -353
4 -157 8 -187 27 -238 33 -85 78 -137 146 -172 52 -26 69 -30 144 -30 128 0
203 38 259 134 31 53 56 151 41 166 -13 13 -29 -11 -29 -45 0 -37 -42 -121
-80 -158 -57 -57 -85 -67 -190 -67 -86 0 -100 3 -142 28 -91 53 -137 152 -145
314 l-6 103 299 2 299 3 -1 115 c-2 180 -45 275 -149 325 -65 32 -176 42 -247
22z m222 -41 c99 -51 139 -132 147 -298 l6 -108 -288 0 -288 0 6 88 c12 179
73 283 193 328 52 19 177 14 224 -10z"/>
		<path d="M5080 6745 c0 -13 38 -15 263 -17 l263 -3 -263 -430 c-145 -236 -263
-436 -263 -442 0 -10 63 -13 280 -13 241 0 280 2 280 15 0 12 -38 15 -260 17
l-260 3 257 420 c141 231 258 430 261 443 l4 22 -281 0 c-242 0 -281 -2 -281
-15z"/>
		<path d="M5820 6745 c0 -13 38 -15 263 -17 l263 -3 -263 -430 c-145 -236 -263
-436 -263 -442 0 -10 63 -13 280 -13 241 0 280 2 280 15 0 12 -38 15 -260 17
l-260 3 257 420 c141 231 258 430 261 443 l4 22 -281 0 c-242 0 -281 -2 -281
-15z"/>
		<path d="M9880 6295 c0 -398 2 -455 15 -455 13 0 15 57 15 455 0 398 -2 455
-15 455 -13 0 -15 -57 -15 -455z"/>
	</g>
</svg>
